<svg width="24" height="24" viewBox="0 0 24 24" fill="none" xmlns="http://www.w3.org/2000/svg">
<path d="M12 0C5.37267 0 0 5.37267 0 12C0 18.6273 5.37267 24 12 24C18.6273 24 24 18.6273 24 12C24 5.37233 18.6273 0 12 0ZM12 22.5137C9.13433 22.5137 6.538 21.366 4.64167 19.5067C5.12167 16.3577 7.567 13.8573 10.6893 13.3033C9.06667 12.7573 7.89633 11.2267 7.89633 9.42C7.89633 7.15567 9.732 5.32033 11.996 5.32033C14.2603 5.32033 16.0957 7.156 16.0957 9.42C16.0957 11.2267 14.9253 12.7573 13.3027 13.3033C16.4273 13.8577 18.874 16.361 19.3513 19.513C17.4557 21.3687 14.862 22.5137 12 22.5137Z" fill="#8A8A8A"/>
</svg>
