<svg width="20" height="24" viewBox="0 0 20 24" fill="none" xmlns="http://www.w3.org/2000/svg">
<path d="M18.8301 17.3981C19.0411 17.3919 19.2522 17.435 19.4542 17.5703C18.7215 17.0906 18.2391 16.2542 18.2391 15.2979V9.96284C18.2391 6.05458 15.4681 2.79206 11.7654 1.98949V1.79885C11.7654 0.802562 10.9754 0 10.0015 0C9.02758 0 8.23759 0.805637 8.23759 1.79885V1.98949C4.5349 2.79206 1.76391 6.05151 1.76391 9.96284V15.2979C1.76391 16.2542 1.27846 17.0906 0.548771 17.5703C0.753807 17.435 0.961857 17.3889 1.17292 17.3981C0.524649 17.4012 0 17.9331 0 18.5973C0 19.2615 0.524649 19.7965 1.17594 19.7965H18.824C19.4753 19.7965 20 19.2615 20 18.5973C20.003 17.9393 19.4784 17.4012 18.8301 17.3981ZM10.0045 24C11.6297 24 12.9474 22.6562 12.9474 20.9988H7.06166C7.06166 22.6562 8.37629 24 10.0045 24Z" fill="#8A8A8A"/>
</svg>
