<?xml version="1.0" encoding="UTF-8" standalone="no"?>
<svg width="20px" height="20px" viewBox="0 0 20 20" version="1.1" xmlns="http://www.w3.org/2000/svg" xmlns:xlink="http://www.w3.org/1999/xlink">
    <!-- Generator: Sketch 46.2 (44496) - http://www.bohemiancoding.com/sketch -->
    <title>Group</title>
    <desc>Created with Sketch.</desc>
    <defs></defs>
    <g id="Symbols" stroke="none" stroke-width="1" fill="none" fill-rule="evenodd">
        <g id="Discrict" transform="translate(-18.000000, 0.000000)">
            <g id="Group" transform="translate(18.000000, 0.000000)">
                <rect id="Rectangle-86" fill="#897AD0" x="0" y="0" width="20" height="20" rx="10"></rect>
                <path d="M9.59,5 C10.91534,5 11.976996,5.39899601 12.775,6.197 C13.573004,6.99500399 13.972,8.06365997 13.972,9.403 C13.972,10.74234 13.573004,11.810996 12.775,12.609 C11.976996,13.407004 10.91534,13.806 9.59,13.806 L7,13.806 L7,5 L9.59,5 Z M8.106,12.84 L9.59,12.84 C10.5700049,12.84 11.3493304,12.5156699 11.928,11.867 C12.5066696,11.2183301 12.796,10.3946717 12.796,9.396 C12.796,8.39732834 12.5043363,7.57833653 11.921,6.939 C11.3376638,6.29966347 10.5606715,5.98 9.59,5.98 L8.106,5.98 L8.106,12.84 Z" id="D" fill="#FFFFFF"></path>
            </g>
        </g>
    </g>
</svg>