<?xml version="1.0" encoding="UTF-8" standalone="no"?>
<svg width="20px" height="20px" viewBox="0 0 20 20" version="1.1" xmlns="http://www.w3.org/2000/svg" xmlns:xlink="http://www.w3.org/1999/xlink">
    <!-- Generator: Sketch 46.2 (44496) - http://www.bohemiancoding.com/sketch -->
    <title>Group</title>
    <desc>Created with Sketch.</desc>
    <defs></defs>
    <g id="Symbols" stroke="none" stroke-width="1" fill="none" fill-rule="evenodd">
        <g id="State">
            <g id="Group">
                <rect id="Rectangle-85" fill="#897AD0" x="0" y="0" width="20" height="20" rx="10"></rect>
                <path d="M12.138,7.296 C11.9793325,6.43732904 11.3493388,6.008 10.248,6.008 C9.65999706,6.008 9.20733492,6.13633205 8.89,6.393 C8.57266508,6.64966795 8.414,6.95766487 8.414,7.317 C8.414,7.67633513 8.51199902,7.9493324 8.708,8.136 C8.90400098,8.3226676 9.22133114,8.4859993 9.66,8.626 L11.494,9.256 C12.1193365,9.47066774 12.6163315,9.7646648 12.985,10.138 C13.3536685,10.5113352 13.538,11.03633 13.538,11.713 C13.538,12.3896701 13.2486696,12.9589977 12.67,13.421 C12.0913304,13.8830023 11.3166715,14.114 10.346,14.114 C9.37532848,14.114 8.57966977,13.8690024 7.959,13.379 C7.33833023,12.8889976 7.01866676,12.2006711 7,11.314 L8.078,11.314 C8.078,11.8926696 8.28099797,12.3359985 8.687,12.644 C9.09300203,12.9520015 9.61566347,13.106 10.255,13.106 C10.8943365,13.106 11.4006648,12.9636681 11.774,12.679 C12.1473352,12.3943319 12.334,12.0583353 12.334,11.671 C12.334,11.2836647 12.2196678,10.9780011 11.991,10.754 C11.7623322,10.5299989 11.4240022,10.3433341 10.976,10.194 L9.422,9.62 C8.69399636,9.37733212 8.1433352,9.08800168 7.77,8.752 C7.3966648,8.41599832 7.21,7.92366991 7.21,7.275 C7.21,6.62633009 7.47133072,6.08500217 7.994,5.651 C8.51666928,5.21699783 9.24932862,5 10.192,5 C11.1346714,5 11.8556642,5.20766459 12.355,5.623 C12.8543358,6.03833541 13.141333,6.5959965 13.216,7.296 L12.138,7.296 Z" id="S" fill="#FFFFFF"></path>
            </g>
        </g>
    </g>
</svg>