<?xml version="1.0" encoding="utf-8" ?>
<svg xmlns="http://www.w3.org/2000/svg" xmlns:xlink="http://www.w3.org/1999/xlink" width="20" height="20">
	<defs>
		<clipPath id="clip_0">
			<rect x="-265" y="-816" width="1280" height="900" clip-rule="evenodd"/>
		</clipPath>
	</defs>
	<g clip-path="url(#clip_0)">
		<path fill="rgb(59,187,141)" stroke="none" d="M2 0L18 0Q18.1025 0 18.2034 0.00932124Q18.3044 0.0186425 18.4029 0.037209Q18.5014 0.0557754 18.5967 0.0834357Q18.692 0.111096 18.7833 0.147624Q18.8747 0.184153 18.9612 0.229252Q19.0478 0.27435 19.129 0.327651Q19.2101 0.380953 19.2852 0.442021Q19.3602 0.50309 19.4286 0.571429Q19.4969 0.639767 19.558 0.714818Q19.619 0.789868 19.6723 0.871019Q19.7257 0.95217 19.7708 1.03876Q19.8158 1.12535 19.8524 1.21667Q19.8889 1.30799 19.9166 1.4033Q19.9442 1.49861 19.9628 1.59713Q19.9814 1.69564 19.9907 1.79657Q20 1.89749 20 2L20 18Q20 18.1025 19.9907 18.2034Q19.9814 18.3044 19.9628 18.4029Q19.9442 18.5014 19.9166 18.5967Q19.8889 18.692 19.8524 18.7833Q19.8158 18.8747 19.7708 18.9612Q19.7257 19.0478 19.6723 19.129Q19.619 19.2101 19.558 19.2852Q19.4969 19.3602 19.4286 19.4286Q19.3602 19.4969 19.2852 19.558Q19.2101 19.619 19.129 19.6723Q19.0478 19.7257 18.9612 19.7708Q18.8747 19.8158 18.7833 19.8524Q18.692 19.8889 18.5967 19.9166Q18.5014 19.9442 18.4029 19.9628Q18.3044 19.9814 18.2034 19.9907Q18.1025 20 18 20L2 20Q1.89749 20 1.79657 19.9907Q1.69564 19.9814 1.59713 19.9628Q1.49861 19.9442 1.4033 19.9166Q1.30799 19.8889 1.21667 19.8524Q1.12535 19.8158 1.03876 19.7708Q0.95217 19.7257 0.871019 19.6723Q0.789868 19.619 0.714818 19.558Q0.639767 19.4969 0.571429 19.4286Q0.50309 19.3602 0.442021 19.2852Q0.380953 19.2101 0.327651 19.129Q0.27435 19.0478 0.229252 18.9612Q0.184153 18.8747 0.147624 18.7833Q0.111096 18.692 0.0834357 18.5967Q0.0557754 18.5014 0.037209 18.4029Q0.0186425 18.3044 0.00932124 18.2034Q0 18.1025 0 18L0 2Q0 1.89749 0.00932124 1.79657Q0.0186425 1.69564 0.037209 1.59713Q0.0557754 1.49861 0.0834357 1.4033Q0.111096 1.30799 0.147624 1.21667Q0.184153 1.12535 0.229252 1.03876Q0.27435 0.95217 0.327651 0.871019Q0.380953 0.789868 0.442021 0.714818Q0.50309 0.639767 0.571429 0.571429Q0.639767 0.50309 0.714818 0.442021Q0.789868 0.380953 0.871019 0.327651Q0.95217 0.27435 1.03876 0.229252Q1.12535 0.184153 1.21667 0.147624Q1.30799 0.111096 1.4033 0.0834357Q1.49861 0.0557754 1.59713 0.037209Q1.69564 0.0186425 1.79657 0.00932124Q1.89749 0 2 0Z"/>
	</g>
	<defs>
		<clipPath id="clip_1">
			<rect x="-265" y="-816" width="1280" height="900" clip-rule="evenodd"/>
		</clipPath>
	</defs>
	<g clip-path="url(#clip_1)">
		<path fill="rgb(255,255,255)" stroke="none" transform="translate(5.11432 3.71814)" d="M6.98077 4.18846L9.77308 4.18846L4.88654 9.075L0 4.18846L2.79231 4.18846L2.79231 0L6.98077 0L6.98077 4.18846ZM0 11.8673L0 10.4712L9.77308 10.4712L9.77308 11.8673L0 11.8673Z" fill-rule="evenodd"/>
	</g>

</svg>