<?xml version="1.0" encoding="utf-8" ?>
<svg xmlns="http://www.w3.org/2000/svg" xmlns:xlink="http://www.w3.org/1999/xlink" width="36" height="20">
	<defs>
		<clipPath id="clip_0">
			<rect x="-188" y="-313" width="1280" height="900" clip-rule="evenodd"/>
		</clipPath>
	</defs>
	<g clip-path="url(#clip_0)">
		<path fill="rgb(137,122,208)" stroke="none" transform="translate(16 0)" d="M10 0L10 0Q10.2561 0 10.5106 0.0116575Q10.765 0.023315 11.0172 0.0466062Q11.2693 0.0698974 11.5188 0.104775Q11.7682 0.139652 12.0144 0.186045Q12.2605 0.232437 12.503 0.29025Q12.7454 0.348063 12.9835 0.417178Q13.2217 0.486294 13.4551 0.566571Q13.6885 0.646847 13.9167 0.738122Q14.1448 0.829396 14.3673 0.931482Q14.5898 1.03357 14.8062 1.14626Q15.0226 1.25895 15.2324 1.38201Q15.4421 1.50507 15.6449 1.63826Q15.8477 1.77144 16.043 1.91448Q16.2384 2.05751 16.4259 2.21011Q16.6134 2.3627 16.7928 2.52454Q16.9721 2.68638 17.1429 2.85714Q17.3136 3.0279 17.4755 3.20723Q17.6373 3.38656 17.7899 3.57409Q17.9425 3.76162 18.0855 3.95697Q18.2286 4.15232 18.3617 4.3551Q18.4949 4.55787 18.618 4.76765Q18.7411 4.97743 18.8537 5.1938Q18.9664 5.41016 19.0685 5.63266Q19.1706 5.85516 19.2619 6.08335Q19.3532 6.31153 19.4334 6.54494Q19.5137 6.77835 19.5828 7.01649Q19.6519 7.25464 19.7098 7.49705Q19.7676 7.73946 19.814 7.98563Q19.8603 8.2318 19.8952 8.48123Q19.9301 8.73066 19.9534 8.98284Q19.9767 9.23502 19.9883 9.48944Q20 9.74386 20 10L20 10Q20 10.2561 19.9883 10.5106Q19.9767 10.765 19.9534 11.0172Q19.9301 11.2693 19.8952 11.5188Q19.8603 11.7682 19.814 12.0144Q19.7676 12.2605 19.7098 12.503Q19.6519 12.7454 19.5828 12.9835Q19.5137 13.2217 19.4334 13.4551Q19.3532 13.6885 19.2619 13.9167Q19.1706 14.1448 19.0685 14.3673Q18.9664 14.5898 18.8537 14.8062Q18.7411 15.0226 18.618 15.2324Q18.4949 15.4421 18.3617 15.6449Q18.2286 15.8477 18.0855 16.043Q17.9425 16.2384 17.7899 16.4259Q17.6373 16.6134 17.4755 16.7928Q17.3136 16.9721 17.1429 17.1429Q16.9721 17.3136 16.7928 17.4755Q16.6134 17.6373 16.4259 17.7899Q16.2384 17.9425 16.043 18.0855Q15.8477 18.2286 15.6449 18.3617Q15.4421 18.4949 15.2324 18.618Q15.0226 18.7411 14.8062 18.8537Q14.5898 18.9664 14.3673 19.0685Q14.1448 19.1706 13.9167 19.2619Q13.6885 19.3532 13.4551 19.4334Q13.2217 19.5137 12.9835 19.5828Q12.7454 19.6519 12.503 19.7098Q12.2605 19.7676 12.0144 19.814Q11.7682 19.8603 11.5188 19.8952Q11.2693 19.9301 11.0172 19.9534Q10.765 19.9767 10.5106 19.9883Q10.2561 20 10 20L10 20Q9.74386 20 9.48944 19.9883Q9.23502 19.9767 8.98284 19.9534Q8.73066 19.9301 8.48123 19.8952Q8.2318 19.8603 7.98563 19.814Q7.73946 19.7676 7.49705 19.7098Q7.25464 19.6519 7.01649 19.5828Q6.77835 19.5137 6.54494 19.4334Q6.31153 19.3532 6.08335 19.2619Q5.85516 19.1706 5.63266 19.0685Q5.41016 18.9664 5.1938 18.8537Q4.97743 18.7411 4.76765 18.618Q4.55787 18.4949 4.3551 18.3617Q4.15232 18.2286 3.95697 18.0855Q3.76162 17.9425 3.57409 17.7899Q3.38656 17.6373 3.20723 17.4755Q3.0279 17.3136 2.85714 17.1429Q2.68638 16.9721 2.52454 16.7928Q2.3627 16.6134 2.21011 16.4259Q2.05751 16.2384 1.91448 16.043Q1.77144 15.8477 1.63826 15.6449Q1.50507 15.4421 1.38201 15.2324Q1.25895 15.0226 1.14626 14.8062Q1.03357 14.5898 0.931482 14.3673Q0.829396 14.1448 0.738122 13.9167Q0.646847 13.6885 0.566571 13.4551Q0.486294 13.2217 0.417178 12.9835Q0.348063 12.7454 0.29025 12.503Q0.232437 12.2605 0.186045 12.0144Q0.139652 11.7682 0.104775 11.5188Q0.0698974 11.2693 0.0466062 11.0172Q0.023315 10.765 0.0116575 10.5106Q0 10.2561 0 10L0 10Q0 9.74386 0.0116575 9.48944Q0.023315 9.23502 0.0466062 8.98284Q0.0698974 8.73066 0.104775 8.48123Q0.139652 8.2318 0.186045 7.98563Q0.232437 7.73946 0.29025 7.49705Q0.348063 7.25464 0.417178 7.01649Q0.486294 6.77835 0.566571 6.54494Q0.646847 6.31153 0.738122 6.08335Q0.829396 5.85516 0.931482 5.63266Q1.03357 5.41016 1.14626 5.1938Q1.25895 4.97743 1.38201 4.76765Q1.50507 4.55787 1.63826 4.3551Q1.77144 4.15232 1.91448 3.95697Q2.05751 3.76162 2.21011 3.57409Q2.3627 3.38656 2.52454 3.20723Q2.68638 3.0279 2.85714 2.85714Q3.0279 2.68638 3.20723 2.52454Q3.38656 2.3627 3.57409 2.21011Q3.76162 2.05751 3.95697 1.91448Q4.15232 1.77144 4.3551 1.63826Q4.55787 1.50507 4.76765 1.38201Q4.97743 1.25895 5.1938 1.14626Q5.41016 1.03357 5.63266 0.931482Q5.85516 0.829396 6.08335 0.738122Q6.31153 0.646847 6.54494 0.566571Q6.77835 0.486294 7.01649 0.417178Q7.25464 0.348063 7.49705 0.29025Q7.73946 0.232437 7.98563 0.186045Q8.2318 0.139652 8.48123 0.104775Q8.73066 0.0698974 8.98284 0.0466062Q9.23502 0.023315 9.48944 0.0116575Q9.74386 0 10 0Z"/>
	</g>
	<defs>
		<clipPath id="clip_1">
			<rect x="-188" y="-313" width="1280" height="900" clip-rule="evenodd"/>
		</clipPath>
	</defs>
	<g clip-path="url(#clip_1)">
		<text fill="rgb(255,255,255)" stroke="none" transform="translate(22 1)" font-size="14" font-family="Segoe UI" x="0" y="14.401367">
				T
		</text>
	</g>
	<defs>
		<clipPath id="clip_2">
			<rect x="-188" y="-313" width="1280" height="900" clip-rule="evenodd"/>
		</clipPath>
	</defs>
	<g clip-path="url(#clip_2)">
		<path fill="none" stroke="rgb(208,214,225)" stroke-width="1" stroke-linecap="round" stroke-linejoin="round" transform="translate(0 7)" d="M6 6L1 6Q0.897283 6 0.798563 5.9814Q0.699843 5.96279 0.608335 5.92619Q0.516827 5.88959 0.43551 5.83617Q0.354193 5.78276 0.285714 5.71429Q0.217236 5.64581 0.163826 5.56449Q0.110415 5.48317 0.0738122 5.39167Q0.037209 5.30016 0.0186045 5.20144Q0 5.10272 0 5L0 0"/>
	</g>

</svg>