<svg width="19" height="19" viewBox="0 0 19 19" fill="none" xmlns="http://www.w3.org/2000/svg">
<path d="M18.6956 17.225L14.8993 13.4377C15.3389 12.8693 15.7017 12.2476 15.9834 11.5813C16.4166 10.553 16.6364 9.46088 16.6364 8.33682C16.6364 7.21275 16.4166 6.12062 15.9834 5.09236C15.5651 4.10028 14.9655 3.20827 14.2015 2.44186C13.4376 1.67545 12.5477 1.0751 11.5575 0.653576C10.5311 0.221407 9.44065 0 8.31818 0C7.19572 0 6.10527 0.221407 5.07883 0.657834C4.08867 1.07723 3.19881 1.67971 2.43485 2.44612C1.67089 3.21253 1.07125 4.10241 0.652992 5.09661C0.219798 6.12488 0 7.21701 0 8.34107C0 9.46514 0.219798 10.5573 0.652992 11.5855C1.07125 12.5776 1.67089 13.4696 2.43485 14.236C3.19881 15.0024 4.08867 15.6028 5.07883 16.0243C6.10527 16.4607 7.19572 16.68 8.31818 16.68C9.44065 16.68 10.5311 16.4586 11.5575 16.0243C12.234 15.7369 12.8635 15.3665 13.4376 14.9173L17.2275 18.6982C17.6308 19.1006 18.2923 19.1006 18.6978 18.6982C19.1011 18.2873 19.1011 17.6274 18.6956 17.225ZM8.31818 14.9748C4.67124 14.9748 1.7029 11.9985 1.7029 8.33894C1.7029 4.67935 4.66911 1.70313 8.31818 1.70313C11.9651 1.70313 14.9335 4.67935 14.9335 8.33894C14.9335 11.9985 11.9651 14.9748 8.31818 14.9748V14.9748Z" fill="#8A8A8A"/>
</svg>
