<?xml version="1.0" standalone="no"?><!DOCTYPE svg PUBLIC "-//W3C//DTD SVG 1.1//EN" "http://www.w3.org/Graphics/SVG/1.1/DTD/svg11.dtd"><svg t="1619101283942" class="icon" viewBox="0 0 1024 1024" version="1.1" xmlns="http://www.w3.org/2000/svg" p-id="1119" xmlns:xlink="http://www.w3.org/1999/xlink" width="200" height="200"><defs><style type="text/css"></style></defs><path d="M464 64C684.928 64 864 243.072 864 464a398.4 398.4 0 0 1-95.424 259.296l207.84 207.872a32 32 0 0 1-42.24 47.904l-3.008-2.656-207.872-207.84A398.4 398.4 0 0 1 464 864C243.072 864 64 684.928 64 464S243.072 64 464 64z m0 64C278.432 128 128 278.432 128 464S278.432 800 464 800 800 649.568 800 464 649.568 128 464 128z" p-id="1120"></path></svg>